# xmcd CD database file
#
# Track frame offsets:
#	150
#	23816
#	52424
#	73407
#	95930
#	122445
#	145587
#	169125
#	194490
#	214917
#	244758
#	266035
#	292392
#
# Disc length: 4161 seconds
#
# Revision: 0
# Processed by: cddbd v1.5.2PL0 Copyright (c) Steve Scherf et al.
# Submitted via: CDex 1.70beta3
#
DISCID=dd103f0d
DTITLE=小林香織 - STORY
DYEAR=2015
DGENRE=Jazz
TTITLE0=Stream Line
TTITLE1=Never Say Never
TTITLE2=Back Street
TTITLE3=PRECIOUS
TTITLE4=It's the Star Connection
TTITLE5=Grace
TTITLE6=WARMTH
TTITLE7=ANOTHER WAY
TTITLE8=もらい泣き
TTITLE9=Great India
TTITLE10=The Fighter
TTITLE11=Starry heavens
TTITLE12=Rock with You
EXTD=YEAR: 2015
EXTT0=
EXTT1=
EXTT2=
EXTT3=
EXTT4=
EXTT5=
EXTT6=
EXTT7=
EXTT8=
EXTT9=
EXTT10=
EXTT11=
EXTT12=
PLAYORDER=
